<?xml version="1.0" standalone="no"?>
<!DOCTYPE svg PUBLIC "-//W3C//DTD SVG 20010904//EN"
 "http://www.w3.org/TR/2001/REC-SVG-20010904/DTD/svg10.dtd">
<svg version="1.0" xmlns="http://www.w3.org/2000/svg"
 width="154.000000pt" height="154.000000pt" viewBox="0 0 154.000000 154.000000"
 preserveAspectRatio="xMidYMid meet">
<metadata>
Created by potrace 1.14, written by Peter Selinger 2001-2017
</metadata>
<g transform="translate(0.000000,154.000000) scale(0.100000,-0.100000)"
fill="#000000" stroke="none">
<path d="M275 1510 c-77 -25 -150 -81 -197 -150 -140 -210 -51 -487 186 -576
l49 -18 -54 -18 c-161 -55 -270 -220 -256 -387 8 -87 29 -143 78 -208 69 -92
190 -153 304 -153 98 0 222 55 286 128 38 42 69 101 84 156 7 28 15 44 18 36
3 -8 13 -39 23 -67 53 -156 222 -265 387 -250 246 23 409 257 341 487 -33 112
-119 209 -219 248 l-49 19 54 26 c188 89 274 293 206 485 -65 182 -280 291
-468 236 -113 -34 -217 -132 -254 -240 l-18 -55 -14 48 c-55 198 -286 318
-487 253z m259 -30 c80 -31 166 -116 196 -196 39 -103 37 -199 -5 -290 -14
-31 -16 -32 -56 -23 -53 12 -94 33 -147 77 -36 30 -42 40 -37 61 4 19 3 22 -4
11 -8 -12 -12 -13 -23 -2 -11 11 -9 17 11 33 13 10 19 19 15 19 -5 0 -4 4 2 8
22 15 114 134 114 147 0 30 -13 45 -40 45 -21 0 -42 -16 -92 -70 -35 -38 -62
-70 -59 -70 3 0 1 -4 -4 -8 -6 -4 -39 -41 -75 -82 -36 -41 -67 -77 -70 -80
-35 -35 -70 -85 -70 -100 0 -28 28 -52 54 -44 11 4 41 29 66 57 25 28 57 64
71 79 l26 29 45 -43 c49 -49 95 -134 100 -188 3 -32 0 -35 -37 -48 -22 -8 -69
-16 -104 -17 -249 -12 -435 227 -362 464 65 207 281 310 485 231z m744 -4
c246 -87 319 -410 135 -594 -67 -67 -149 -104 -239 -108 -72 -3 -148 13 -190
41 -22 14 -22 17 -9 54 24 68 47 105 97 153 28 27 53 48 56 48 4 0 33 -39 65
-86 54 -79 61 -85 89 -82 21 2 33 10 39 25 6 18 -8 46 -77 150 -46 70 -87 135
-91 143 -4 8 -9 17 -13 20 -3 3 -28 38 -54 78 -41 61 -53 72 -77 72 -58 0 -57
-40 2 -130 27 -41 47 -80 45 -87 -3 -7 1 -10 10 -6 46 17 -30 -96 -94 -141
-42 -28 -104 -56 -127 -56 -37 0 -66 163 -43 247 58 215 272 331 476 259z
m-483 -473 l14 -43 -39 0 -38 0 19 40 c10 21 19 47 20 57 1 20 0 21 24 -54z
m255 -245 c0 -5 -8 -8 -18 -8 -10 0 -27 -7 -38 -15 -29 -22 -34 -18 -34 24 l0
39 45 -17 c25 -9 45 -19 45 -23z m-490 3 l0 -30 -47 16 -46 16 34 12 c53 19
59 18 59 -14z m-72 -28 c29 -8 56 -21 59 -29 7 -19 -22 -90 -57 -137 -28 -39
-97 -96 -115 -97 -5 0 -3 5 5 10 13 8 12 10 -3 10 -10 0 -47 25 -82 55 -36 30
-72 55 -79 55 -31 0 -46 -13 -46 -40 0 -23 15 -42 70 -91 38 -34 66 -67 63
-72 -3 -6 -1 -7 5 -3 6 3 30 -12 54 -34 24 -22 47 -40 51 -40 5 0 5 -4 2 -10
-3 -5 -1 -10 6 -10 6 0 40 -25 75 -56 71 -62 109 -70 126 -25 8 22 1 32 -64
94 -40 38 -72 74 -70 79 1 5 -1 7 -6 4 -4 -2 -14 -1 -22 4 -12 8 -12 12 -2 22
10 10 15 10 23 -2 8 -11 9 -9 4 8 -11 39 62 101 162 136 49 17 54 13 78 -55
56 -157 -1 -333 -139 -424 -247 -164 -575 21 -562 317 7 158 126 305 273 336
61 13 134 12 191 -5z m807 -13 c118 -45 208 -170 220 -306 22 -252 -221 -450
-463 -375 -164 51 -266 196 -258 368 4 69 36 163 56 163 46 0 150 -69 196
-128 31 -41 38 -72 12 -56 -6 4 -8 2 -5 -3 6 -10 -26 -58 -66 -98 -35 -34 -49
-64 -43 -89 13 -51 68 -34 123 37 18 23 45 56 60 72 15 17 45 49 65 72 21 24
39 37 42 30 2 -7 5 -4 5 6 1 10 26 48 56 83 30 36 55 73 55 82 0 37 -27 53
-65 38 -11 -4 -44 -36 -74 -71 -29 -36 -58 -62 -64 -58 -5 3 -7 1 -4 -4 4 -6
0 -16 -8 -23 -12 -10 -16 -9 -21 4 -3 9 -12 16 -19 16 -39 0 -146 189 -123
217 6 7 38 22 72 33 77 25 167 21 251 -10z m-499 -205 c-12 -35 -23 -65 -26
-65 -3 0 -15 30 -26 65 l-22 65 47 0 47 0 -20 -65z"/>
<path d="M1231 1134 c0 -11 3 -14 6 -6 3 7 2 16 -1 19 -3 4 -6 -2 -5 -13z"/>
</g>
</svg>
